<?xml version="1.0" standalone="no"?>
<!DOCTYPE svg PUBLIC "-//W3C//DTD SVG 20010904//EN"
 "http://www.w3.org/TR/2001/REC-SVG-20010904/DTD/svg10.dtd">
<svg version="1.0" xmlns="http://www.w3.org/2000/svg"
 width="500.000000pt" height="500.000000pt" viewBox="0 0 500.000000 500.000000"
 preserveAspectRatio="xMidYMid meet">
<metadata>
Created by potrace 1.11, written by Peter Selinger 2001-2013
</metadata>
<g transform="translate(0.000000,500.000000) scale(0.100000,-0.100000)"
fill="#000000" stroke="none">
<path d="M1940 3098 c0 -438 -4 -824 -15 -1360 l-5 -258 387 0 c214 0 502 -5
642 -10 140 -6 255 -9 256 -8 3 4 -24 218 -30 239 -5 16 -22 17 -218 13 -117
-2 -334 -6 -484 -8 l-272 -4 -5 41 c-3 23 -8 148 -11 277 -14 591 -57 1448
-75 1495 -6 16 -18 21 -51 23 -24 1 -61 5 -81 8 l-38 6 0 -454z"/>
</g>
</svg>
